0
SECTION
2
HEADER
9
$INSUNITS
70
4
9
$ACADVER
1
AC1014
9
$HANDSEED
5
FFFF
0
ENDSEC
0
SECTION
2
TABLES
0
TABLE
2
VPORT
5
8
100
AcDbSymbolTable
0
ENDTAB
0
TABLE
2
LTYPE
5
5
100
AcDbSymbolTable
0
LTYPE
5
14
100
AcDbSymbolTableRecord
100
AcDbLinetypeTableRecord
2
BYBLOCK
70
0
0
LTYPE
5
15
100
AcDbSymbolTableRecord
100
AcDbLinetypeTableRecord
2
BYLAYER
70
0
0
ENDTAB
0
TABLE
2
LAYER
5
2
100
AcDbSymbolTable
70
2
0
LAYER
5
50
100
AcDbSymbolTableRecord
100
AcDbLayerTableRecord
2
0
70
0
6
CONTINUOUS
0
ENDTAB
0
TABLE
2
STYLE
5
3
100
AcDbSymbolTable
70
1
0
STYLE
5
11
100
AcDbSymbolTableRecord
100
AcDbTextStyleTableRecord
2
STANDARD
70
0
0
ENDTAB
0
TABLE
2
VIEW
5
6
100
AcDbSymbolTable
70
0
0
ENDTAB
0
TABLE
2
UCS
5
7
100
AcDbSymbolTable
70
0
0
ENDTAB
0
TABLE
2
APPID
5
9
100
AcDbSymbolTable
70
2
0
APPID
5
12
100
AcDbSymbolTableRecord
100
AcDbRegAppTableRecord
2
ACAD
70
0
0
ENDTAB
0
TABLE
2
DIMSTYLE
5
A
100
AcDbSymbolTable
70
1
0
ENDTAB
0
TABLE
2
BLOCK_RECORD
5
1
100
AcDbSymbolTable
70
1
0
BLOCK_RECORD
5
1F
100
AcDbSymbolTableRecord
100
AcDbBlockTableRecord
2
*MODEL_SPACE
0
BLOCK_RECORD
5
1B
100
AcDbSymbolTableRecord
100
AcDbBlockTableRecord
2
*PAPER_SPACE
0
ENDTAB
0
ENDSEC
0
SECTION
2
BLOCKS
0
BLOCK
5
20
100
AcDbEntity
100
AcDbBlockBegin
2
*MODEL_SPACE
0
ENDBLK
5
21
100
AcDbEntity
100
AcDbBlockEnd
0
BLOCK
5
1C
100
AcDbEntity
100
AcDbBlockBegin
2
*PAPER_SPACE
0
ENDBLK
5
1D
100
AcDbEntity
100
AcDbBlockEnd
0
ENDSEC
0
SECTION
2
ENTITIES
0
LWPOLYLINE
5
100
100
AcDbEntity
8
0
100
AcDbPolyline
90
4
70
1
43
0.0
10
336
20
-201.42857142857144
10
336
20
-244.28571428571428
10
340
20
-244.28571428571428
10
340
20
-201.42857142857144
0
LWPOLYLINE
5
101
100
AcDbEntity
8
0
100
AcDbPolyline
90
4
70
1
43
0.0
10
336
20
-115.71428571428572
10
336
20
-158.57142857142858
10
340
20
-158.57142857142858
10
340
20
-115.71428571428572
0
LWPOLYLINE
5
102
100
AcDbEntity
8
0
100
AcDbPolyline
90
72
70
1
43
0.0
10
340
20
-287.14285714285717
10
336
20
-287.14285714285717
10
336
20
-326
10
304.5454545454545
20
-326
10
304.5454545454545
20
-330
10
263.63636363636363
20
-330
10
263.63636363636363
20
-326
10
222.72727272727275
20
-326
10
222.72727272727275
20
-330
10
181.81818181818181
20
-330
10
181.81818181818181
20
-326
10
140.90909090909093
20
-326
10
140.90909090909093
20
-330
10
134
20
-330
10
134
20
-287.14285714285717
10
130
20
-287.14285714285717
10
130
20
-330
10
100
20
-330
10
100
20
-30
10
130
20
-30
10
130
20
-72.857142857142861
10
134
20
-72.857142857142861
10
134
20
-30
10
140.90909090909093
20
-30
10
140.90909090909093
20
-34
10
181.81818181818181
20
-34
10
181.81818181818181
20
-30
10
222.72727272727275
20
-30
10
222.72727272727275
20
-34
10
263.63636363636363
20
-34
10
263.63636363636363
20
-30
10
304.5454545454545
20
-30
10
304.5454545454545
20
-34
10
336
20
-34
10
336
20
-72.857142857142861
10
340
20
-72.857142857142861
10
340
20
-34
10
345.4545454545455
20
-34
10
345.4545454545455
20
-30
10
386.36363636363637
20
-30
10
386.36363636363637
20
-34
10
427.27272727272725
20
-34
10
427.27272727272725
20
-30
10
468.18181818181819
20
-30
10
468.18181818181819
20
-34
10
509.09090909090907
20
-34
10
509.09090909090907
20
-30
10
550
20
-30
10
550
20
-72.857142857142861
10
546
20
-72.857142857142861
10
546
20
-115.71428571428571
10
550
20
-115.71428571428571
10
550
20
-158.57142857142858
10
546
20
-158.57142857142858
10
546
20
-201.42857142857142
10
550
20
-201.42857142857142
10
550
20
-244.28571428571428
10
546
20
-244.28571428571428
10
546
20
-287.14285714285717
10
550
20
-287.14285714285717
10
550
20
-330
10
509.09090909090907
20
-330
10
509.09090909090907
20
-326
10
468.18181818181819
20
-326
10
468.18181818181819
20
-330
10
427.27272727272725
20
-330
10
427.27272727272725
20
-326
10
386.36363636363637
20
-326
10
386.36363636363637
20
-330
10
345.4545454545455
20
-330
10
345.4545454545455
20
-326
10
340
20
-326
0
LWPOLYLINE
5
103
100
AcDbEntity
8
0
100
AcDbPolyline
90
4
70
1
43
0.0
10
130
20
-244.28571428571428
10
134
20
-244.28571428571428
10
134
20
-201.42857142857142
10
130
20
-201.42857142857142
0
LWPOLYLINE
5
104
100
AcDbEntity
8
0
100
AcDbPolyline
90
4
70
1
43
0.0
10
130
20
-158.57142857142858
10
134
20
-158.57142857142858
10
134
20
-115.71428571428571
10
130
20
-115.71428571428571
0
LWPOLYLINE
5
105
100
AcDbEntity
8
0
100
AcDbPolyline
90
4
70
1
43
0.0
10
293.33333333333337
20
-579
10
293.33333333333337
20
-575
10
270.00000000000006
20
-575
10
270.00000000000006
20
-579
0
LWPOLYLINE
5
106
100
AcDbEntity
8
0
100
AcDbPolyline
90
4
70
1
43
0.0
10
246.66666666666671
20
-579
10
246.66666666666671
20
-575
10
223.33333333333337
20
-575
10
223.33333333333337
20
-579
0
LWPOLYLINE
5
107
100
AcDbEntity
8
0
100
AcDbPolyline
90
4
70
1
43
0.0
10
200
20
-579
10
200
20
-575
10
176.66666666666671
20
-575
10
176.66666666666671
20
-579
0
LWPOLYLINE
5
108
100
AcDbEntity
8
0
100
AcDbPolyline
90
6
70
1
43
0.0
10
153.33333333333337
20
-579
10
153.33333333333337
20
-575
10
130
20
-575
10
130
20
-596.42857142857133
10
134
20
-596.42857142857133
10
134.00000000000006
20
-579
0
LWPOLYLINE
5
109
100
AcDbEntity
8
0
100
AcDbPolyline
90
4
70
1
43
0.0
10
130
20
-617.85714285714289
10
130
20
-639.28571428571433
10
134
20
-639.28571428571433
10
134
20
-617.85714285714289
0
LWPOLYLINE
5
110
100
AcDbEntity
8
0
100
AcDbPolyline
90
4
70
1
43
0.0
10
130
20
-660.71428571428567
10
130
20
-682.14285714285722
10
134
20
-682.14285714285722
10
134
20
-660.71428571428567
0
LWPOLYLINE
5
111
100
AcDbEntity
8
0
100
AcDbPolyline
90
4
70
1
43
0.0
10
386.66666666666663
20
-429
10
410
20
-429
10
410
20
-425
10
386.66666666666663
20
-425
0
LWPOLYLINE
5
112
100
AcDbEntity
8
0
100
AcDbPolyline
90
4
70
1
43
0.0
10
433.33333333333326
20
-429
10
456.66666666666663
20
-429
10
456.66666666666663
20
-425
10
433.33333333333326
20
-425
0
LWPOLYLINE
5
113
100
AcDbEntity
8
0
100
AcDbPolyline
90
4
70
1
43
0.0
10
480
20
-429
10
503.33333333333326
20
-429
10
503.33333333333326
20
-425
10
480
20
-425
0
LWPOLYLINE
5
114
100
AcDbEntity
8
0
100
AcDbPolyline
90
61
70
1
43
0.0
10
100
20
-550
42
-0.41421356237309509
10
150
20
-500
10
241
20
-500
42
0.41421356237309448
10
261
20
-480
10
261
20
-425
42
-0.41421356237309509
10
311
20
-375
10
550
20
-375
10
550
20
-406.81818181818187
10
546
20
-406.81818181818187
10
546
20
-425
10
526.66666666666663
20
-425
10
526.66666666666663
20
-429
10
546
20
-429
10
546
20
-438.63636363636368
10
550
20
-438.63636363636368
10
550
20
-470.4545454545455
10
546
20
-470.4545454545455
10
546
20
-502.27272727272725
10
550
20
-502.27272727272725
10
550
20
-534.09090909090901
10
546
20
-534.09090909090901
10
546
20
-565.90909090909099
10
550
20
-565.90909090909099
10
550
20
-597.72727272727275
10
546
20
-597.72727272727275
10
546
20
-629.5454545454545
10
550
20
-629.5454545454545
10
550
20
-661.36363636363637
10
546
20
-661.36363636363637
10
546
20
-693.18181818181813
10
550
20
-693.18181818181813
10
550
20
-721
10
509.09090909090907
20
-720.99999994039536
10
509.09090909090907
20
-725
10
468.18181818181819
20
-725
10
468.18181818181819
20
-720.99999994039536
10
427.27272727272725
20
-720.99999994039536
10
427.27272727272725
20
-725
10
386.36363636363637
20
-725
10
386.36363636363637
20
-720.99999994039536
10
345.4545454545455
20
-720.99999994039536
10
345.4545454545455
20
-725
10
340
20
-725
10
340
20
-701.92307692307679
10
336
20
-701.92307692307679
10
336
20
-725
10
304.5454545454545
20
-725
10
304.5454545454545
20
-720.99999994039536
10
263.63636363636363
20
-720.99999994039536
10
263.63636363636363
20
-725
10
222.72727272727275
20
-725
10
222.72727272727275
20
-720.99999994039536
10
181.81818181818181
20
-720.99999994039536
10
181.81818181818181
20
-725
10
140.90909090909093
20
-725
10
140.90909090909093
20
-720.99999994039536
10
134
20
-721
10
134
20
-703.57142857142867
10
130
20
-703.57142857142867
10
130
20
-721
10
100
20
-721
0
LWPOLYLINE
5
115
100
AcDbEntity
8
0
100
AcDbPolyline
90
6
70
1
43
0.0
10
336
20
-425
10
336
20
-448.07692307692309
10
340
20
-448.07692307692309
10
340
20
-429
10
363.33333333333326
20
-429
10
363.33333333333326
20
-425
0
LWPOLYLINE
5
116
100
AcDbEntity
8
0
100
AcDbPolyline
90
4
70
1
43
0.0
10
336
20
-471.15384615384613
10
336
20
-494.23076923076917
10
340
20
-494.23076923076917
10
340
20
-471.15384615384613
0
LWPOLYLINE
5
117
100
AcDbEntity
8
0
100
AcDbPolyline
90
4
70
1
43
0.0
10
336
20
-517.30769230769226
10
336
20
-540.38461538461536
10
340
20
-540.38461538461536
10
340
20
-517.30769230769226
0
LWPOLYLINE
5
118
100
AcDbEntity
8
0
100
AcDbPolyline
90
8
70
1
43
0.0
10
336
20
-579
10
336
20
-586.53846153846155
10
340
20
-586.53846153846155
10
340
20
-563.46153846153834
10
336
20
-563.46153846153834
10
336
20
-575
10
316.66666666666674
20
-575
10
316.66666666666674
20
-579
0
LWPOLYLINE
5
119
100
AcDbEntity
8
0
100
AcDbPolyline
90
4
70
1
43
0.0
10
336
20
-609.61538461538464
10
336
20
-632.69230769230762
10
340
20
-632.69230769230762
10
340
20
-609.61538461538464
0
LWPOLYLINE
5
120
100
AcDbEntity
8
0
100
AcDbPolyline
90
4
70
1
43
0.0
10
336
20
-655.76923076923072
10
336
20
-678.84615384615381
10
340
20
-678.84615384615381
10
340
20
-655.76923076923072
0
LWPOLYLINE
5
121
100
AcDbEntity
8
0
100
AcDbPolyline
90
40
70
1
43
0.0
10
144.71428571428572
20
-343.57142857142861
10
144.71428571428572
20
-339.57142857142856
10
187.57142857142861
20
-339.57142857142856
10
187.57142857142861
20
-360.99999999999994
10
183.57142857142861
20
-360.99999999999994
10
183.57142857142861
20
-382.42857142857144
10
187.57142857142861
20
-382.42857142857144
10
187.57142857142861
20
-403.85714285714289
10
183.57142857142861
20
-403.85714285714289
10
183.57142857142861
20
-425.28571428571422
10
187.57142857142861
20
-425.28571428571422
10
187.57142857142861
20
-446.71428571428578
10
183.57142857142861
20
-446.71428571428578
10
183.57142857142861
20
-468.14285714285717
10
187.57142857142861
20
-468.14285714285717
10
187.57142857142864
20
-489.57142857142856
10
144.71428571428578
20
-489.57142857142856
10
144.71428571428575
20
-485.57142857142867
10
101.8571428571429
20
-485.57142857142867
10
101.85714285714295
20
-489.57142857142856
10
59.000000000000057
20
-489.57142857142856
10
59.000000000000057
20
-485.57142857142867
10
16.14285714285721
20
-485.57142857142867
10
16.14285714285721
20
-489.57142857142867
10
-26.714285714285673
20
-489.57142857142867
10
-26.714285714285637
20
-485.57142857142867
10
-69.571428571428527
20
-485.57142857142867
10
-69.571428571428527
20
-489.57142857142867
10
-112.42857142857136
20
-489.57142857142867
10
-112.4285714285714
20
-339.57142857142867
10
-69.571428571428555
20
-339.57142857142867
10
-69.571428571428555
20
-343.57142857142861
10
-26.714285714285708
20
-343.57142857142861
10
-26.714285714285708
20
-339.57142857142867
10
16.142857142857139
20
-339.57142857142867
10
16.142857142857139
20
-343.57142857142861
10
59
20
-343.57142857142861
10
58.999999999999986
20
-339.57142857142856
10
101.85714285714286
20
-339.57142857142856
10
101.85714285714286
20
-343.57142857142861
0
LWPOLYLINE
5
122
100
AcDbEntity
8
0
100
AcDbPolyline
90
60
70
1
43
0.0
10
-73.333333333333357
20
-326.00000000000011
10
-96.666666666666686
20
-326.00000000000011
10
-96.666666666666686
20
-330
10
-120
20
-330
10
-120
20
-287.14285714285717
10
-123.99999999999999
20
-287.14285714285717
10
-123.99999999999999
20
-244.28571428571431
10
-120
20
-244.28571428571431
10
-120
20
-201.4285714285715
10
-123.99999999999999
20
-201.4285714285715
10
-123.99999999999999
20
-158.57142857142861
10
-120
20
-158.57142857142861
10
-120
20
-115.71428571428577
10
-123.99999999999999
20
-115.71428571428577
10
-123.99999999999999
20
-72.85714285714289
10
-120
20
-72.85714285714289
10
-120
20
-30
10
-96.666666666666686
20
-30
10
-96.666666666666686
20
-34.000000000000057
10
-73.333333333333357
20
-34.000000000000057
10
-73.333333333333357
20
-30
10
-50
20
-30
10
-50
20
-34.000000000000057
10
-26.666666666666679
20
-34.000000000000057
10
-26.666666666666679
20
-30
10
-3.3333333333333393
20
-30
10
-3.3333333333333393
20
-34.000000000000057
10
19.999999999999982
20
-34.000000000000057
10
19.999999999999982
20
-30
10
43.333333333333321
20
-30
10
43.333333333333321
20
-34.000000000000057
10
66.666666666666643
20
-34.000000000000057
10
66.666666666666643
20
-30
10
90
20
-30
10
90
20
-72.85714285714289
10
86
20
-72.85714285714289
10
86
20
-115.71428571428577
10
90
20
-115.71428571428577
10
90
20
-158.57142857142861
10
86
20
-158.57142857142861
10
86
20
-201.4285714285715
10
90
20
-201.4285714285715
10
90
20
-244.28571428571431
10
86
20
-244.28571428571431
10
86
20
-287.14285714285717
10
90
20
-287.14285714285717
10
90
20
-330
10
66.666666666666643
20
-330
10
66.666666666666643
20
-326.00000000000011
10
43.333333333333321
20
-326.00000000000011
10
43.333333333333321
20
-330
10
19.999999999999982
20
-330
10
19.999999999999982
20
-326.00000000000011
10
-3.3333333333333393
20
-326.00000000000011
10
-3.3333333333333393
20
-330
10
-26.666666666666679
20
-330
10
-26.666666666666679
20
-326.00000000000011
10
-50
20
-326.00000000000011
10
-50
20
-330
10
-73.333333333333357
20
-330
0
LWPOLYLINE
5
123
100
AcDbEntity
8
0
100
AcDbPolyline
90
76
70
1
43
0.0
10
-134
20
-287.14285714285717
10
-134
20
-330
10
-157.07692307692304
20
-330
10
-157.07692307692304
20
-326
10
-180.15384615384613
20
-326
10
-180.15384615384613
20
-330
10
-203.23076923076917
20
-330
10
-203.23076923076917
20
-326
10
-226.30769230769226
20
-326
10
-226.30769230769226
20
-330
10
-249.38461538461536
20
-330
10
-249.38461538461536
20
-326
10
-272.4615384615384
20
-326
10
-272.4615384615384
20
-330
10
-295.53846153846155
20
-330
10
-295.53846153846155
20
-326
10
-318.61538461538458
20
-326
10
-318.61538461538458
20
-330
10
-341.69230769230762
20
-330
10
-341.69230769230762
20
-326
10
-364.76923076923072
20
-326
10
-364.76923076923072
20
-330
10
-387.84615384615381
20
-330
10
-387.84615384615381
20
-326
10
-410.92307692307685
20
-326
10
-410.92307692307685
20
-330
10
-434
20
-330
10
-434
20
-287.14285714285717
10
-430
20
-287.14285714285717
10
-430
20
-244.28571428571428
10
-434
20
-244.28571428571428
10
-434
20
-201.42857142857144
10
-430
20
-201.42857142857144
10
-430
20
-158.57142857142858
10
-434
20
-158.57142857142858
10
-434
20
-115.71428571428572
10
-430
20
-115.71428571428572
10
-430
20
-72.857142857142861
10
-434
20
-72.857142857142861
10
-434
20
-30
10
-410.92307692307685
20
-30
10
-410.92307692307685
20
-34
10
-387.84615384615381
20
-34
10
-387.84615384615381
20
-30
10
-364.76923076923072
20
-30
10
-364.76923076923072
20
-34
10
-341.69230769230762
20
-34
10
-341.69230769230762
20
-30
10
-318.61538461538458
20
-30
10
-318.61538461538458
20
-34
10
-295.53846153846155
20
-34
10
-295.53846153846155
20
-30
10
-272.4615384615384
20
-30
10
-272.4615384615384
20
-34
10
-249.38461538461536
20
-34
10
-249.38461538461536
20
-30
10
-226.30769230769226
20
-30
10
-226.30769230769226
20
-34
10
-203.23076923076917
20
-34
10
-203.23076923076917
20
-30
10
-180.15384615384613
20
-30
10
-180.15384615384613
20
-34
10
-157.07692307692304
20
-34
10
-157.07692307692304
20
-30
10
-134
20
-30
10
-134
20
-72.857142857142861
10
-137.99999999999997
20
-72.857142857142861
10
-137.99999999999997
20
-115.71428571428572
10
-134
20
-115.71428571428572
10
-134
20
-158.57142857142858
10
-137.99999999999997
20
-158.57142857142858
10
-137.99999999999997
20
-201.42857142857144
10
-134
20
-201.42857142857144
10
-134
20
-244.28571428571428
10
-137.99999999999997
20
-244.28571428571428
10
-137.99999999999997
20
-287.14285714285717
0
LWPOLYLINE
5
124
100
AcDbEntity
8
0
100
AcDbPolyline
90
4
70
1
43
0.0
10
-284
20
-244.28571428571431
10
-288
20
-244.28571428571431
10
-288
20
-287.14285714285717
10
-284
20
-287.14285714285717
0
LWPOLYLINE
5
125
100
AcDbEntity
8
0
100
AcDbPolyline
90
4
70
1
43
0.0
10
-284
20
-158.57142857142858
10
-288
20
-158.57142857142858
10
-288
20
-201.42857142857144
10
-284
20
-201.42857142857144
0
LWPOLYLINE
5
126
100
AcDbEntity
8
0
100
AcDbPolyline
90
4
70
1
43
0.0
10
-284
20
-72.85714285714289
10
-288
20
-72.85714285714289
10
-288
20
-115.71428571428572
10
-284
20
-115.71428571428572
0
LWPOLYLINE
5
127
100
AcDbEntity
8
0
100
AcDbPolyline
90
4
70
1
43
0.0
10
-224.50000000000003
20
-673.13186813186803
10
-220.50000000000006
20
-673.13186813186803
10
-220.50000000000006
20
-650.05494505494494
10
-224.50000000000003
20
-650.05494505494494
0
LWPOLYLINE
5
128
100
AcDbEntity
8
0
100
AcDbPolyline
90
4
70
1
43
0.0
10
-224.50000000000003
20
-626.97802197802184
10
-220.50000000000006
20
-626.97802197802184
10
-220.50000000000006
20
-603.90109890109886
10
-224.50000000000003
20
-603.90109890109886
0
LWPOLYLINE
5
129
100
AcDbEntity
8
0
100
AcDbPolyline
90
8
70
1
43
0.0
10
-224.50000000000003
20
-580.82417582417577
10
-220.50000000000006
20
-580.82417582417577
10
-220.50000000000006
20
-573.28571428571422
10
-201.16666666666674
20
-573.28571428571422
10
-201.16666666666674
20
-569.28571428571422
10
-220.50000000000006
20
-569.28571428571422
10
-220.50000000000006
20
-557.74725274725267
10
-224.50000000000003
20
-557.74725274725267
0
LWPOLYLINE
5
130
100
AcDbEntity
8
0
100
AcDbPolyline
90
4
70
1
43
0.0
10
-224.50000000000003
20
-534.67032967032958
10
-220.50000000000006
20
-534.67032967032958
10
-220.50000000000006
20
-511.59340659340648
10
-224.50000000000003
20
-511.59340659340648
0
LWPOLYLINE
5
131
100
AcDbEntity
8
0
100
AcDbPolyline
90
4
70
1
43
0.0
10
-224.50000000000003
20
-488.51648351648345
10
-220.50000000000006
20
-488.51648351648345
10
-220.50000000000006
20
-465.43956043956035
10
-224.50000000000003
20
-465.43956043956035
0
LWPOLYLINE
5
132
100
AcDbEntity
8
0
100
AcDbPolyline
90
6
70
1
43
0.0
10
-224.50000000000003
20
-442.36263736263732
10
-220.50000000000006
20
-442.36263736263732
10
-220.50000000000006
20
-419.28571428571422
10
-247.83333333333331
20
-419.28571428571422
10
-247.83333333333331
20
-423.28571428571422
10
-224.50000000000003
20
-423.28571428571422
0
LWPOLYLINE
5
133
100
AcDbEntity
8
0
100
AcDbPolyline
90
4
70
1
43
0.0
10
-387.83333333333331
20
-419.28571428571422
10
-387.83333333333331
20
-423.28571428571422
10
-364.5
20
-423.28571428571422
10
-364.5
20
-419.28571428571422
0
LWPOLYLINE
5
134
100
AcDbEntity
8
0
100
AcDbPolyline
90
4
70
1
43
0.0
10
-341.16666666666674
20
-419.28571428571422
10
-341.16666666666674
20
-423.28571428571422
10
-317.83333333333331
20
-423.28571428571422
10
-317.83333333333331
20
-419.28571428571422
0
LWPOLYLINE
5
135
100
AcDbEntity
8
0
100
AcDbPolyline
90
4
70
1
43
0.0
10
-294.5
20
-419.28571428571422
10
-294.5
20
-423.28571428571422
10
-271.16666666666669
20
-423.28571428571422
10
-271.16666666666669
20
-419.28571428571422
0
LWPOLYLINE
5
136
100
AcDbEntity
8
0
100
AcDbPolyline
90
4
70
1
43
0.0
10
-18.500000000000014
20
-676.42857142857133
10
-14.500000000000028
20
-676.42857142857133
10
-14.500000000000028
20
-655
10
-18.500000000000014
20
-655
0
LWPOLYLINE
5
137
100
AcDbEntity
8
0
100
AcDbPolyline
90
4
70
1
43
0.0
10
-18.500000000000014
20
-633.57142857142867
10
-14.500000000000028
20
-633.57142857142867
10
-14.500000000000028
20
-612.14285714285711
10
-18.500000000000014
20
-612.14285714285711
0
LWPOLYLINE
5
138
100
AcDbEntity
8
0
100
AcDbPolyline
90
6
70
1
43
0.0
10
-14.500000000000028
20
-569.28571428571422
10
-37.833333333333385
20
-569.28571428571422
10
-37.833333333333385
20
-573.28571428571422
10
-18.500000000000085
20
-573.28571428571422
10
-18.500000000000014
20
-590.71428571428567
10
-14.500000000000028
20
-590.71428571428567
0
LWPOLYLINE
5
139
100
AcDbEntity
8
0
100
AcDbPolyline
90
4
70
1
43
0.0
10
-61.166666666666742
20
-569.28571428571422
10
-84.500000000000028
20
-569.28571428571422
10
-84.500000000000028
20
-573.28571428571422
10
-61.166666666666742
20
-573.28571428571422
0
LWPOLYLINE
5
140
100
AcDbEntity
8
0
100
AcDbPolyline
90
4
70
1
43
0.0
10
-107.83333333333339
20
-569.28571428571422
10
-131.16666666666674
20
-569.28571428571422
10
-131.16666666666674
20
-573.28571428571422
10
-107.83333333333339
20
-573.28571428571422
0
LWPOLYLINE
5
141
100
AcDbEntity
8
0
100
AcDbPolyline
90
4
70
1
43
0.0
10
-154.50000000000011
20
-569.28571428571422
10
-177.83333333333337
20
-569.28571428571422
10
-177.83333333333337
20
-573.28571428571422
10
-154.50000000000011
20
-573.28571428571422
0
LWPOLYLINE
5
142
100
AcDbEntity
8
0
100
AcDbPolyline
90
61
70
1
43
0.0
10
-125.50000000000004
20
-494.28571428571422
10
-34.500000000000036
20
-494.28571428571422
42
-0.41421356237309509
10
15.499999999999972
20
-544.28571428571422
10
15.499999999999972
20
-715.28571428571445
10
-14.500000000000028
20
-715.28571428571445
10
-14.500000000000028
20
-697.85714285714278
10
-18.500000000000014
20
-697.85714285714278
10
-18.500000000000014
20
-715.28571428571445
10
-25.409090909090963
20
-715.28571422610958
10
-25.409090909090963
20
-719.28571428571422
10
-66.318181818181827
20
-719.28571428571422
10
-66.318181818181827
20
-715.28571422610958
10
-107.22727272727276
20
-715.28571422610958
10
-107.22727272727276
20
-719.28571428571422
10
-148.13636363636363
20
-719.28571428571422
10
-148.13636363636363
20
-715.28571422610958
10
-189.04545454545456
20
-715.28571422610958
10
-189.04545454545456
20
-719.28571428571422
10
-220.50000000000006
20
-719.28571428571422
10
-220.50000000000006
20
-696.20879120879124
10
-224.50000000000003
20
-696.20879120879124
10
-224.50000000000003
20
-719.28571428571422
10
-229.9545454545455
20
-719.28571428571422
10
-229.9545454545455
20
-715.28571422610958
10
-270.86363636363643
20
-715.28571422610958
10
-270.86363636363643
20
-719.28571428571422
10
-311.77272727272737
20
-719.28571428571422
10
-311.77272727272737
20
-715.28571422610958
10
-352.68181818181813
20
-715.28571422610958
10
-352.68181818181813
20
-719.28571428571422
10
-393.59090909090912
20
-719.28571428571422
10
-393.59090909090912
20
-715.28571422610958
10
-434.5
20
-715.28571428571445
10
-434.5
20
-687.46753246753258
10
-430.50000000000011
20
-687.46753246753258
10
-430.50000000000011
20
-655.64935064935071
10
-434.5
20
-655.64935064935071
10
-434.5
20
-623.83116883116884
10
-430.50000000000011
20
-623.83116883116884
10
-430.50000000000011
20
-592.01298701298697
10
-434.5
20
-592.01298701298697
10
-434.5
20
-560.19480519480521
10
-430.50000000000011
20
-560.19480519480521
10
-430.50000000000011
20
-528.37662337662334
10
-434.5
20
-528.37662337662334
10
-434.5
20
-496.55844155844147
10
-430.50000000000011
20
-496.55844155844147
10
-430.50000000000011
20
-464.74025974025972
10
-434.5
20
-464.74025974025972
10
-434.5
20
-432.9220779220779
10
-430.50000000000011
20
-432.9220779220779
10
-430.50000000000011
20
-423.28571428571422
10
-411.16666666666674
20
-423.28571428571422
10
-411.16666666666674
20
-419.28571428571422
10
-430.50000000000011
20
-419.28571428571422
10
-430.50000000000011
20
-401.10389610389609
10
-434.5
20
-401.10389610389609
10
-434.5
20
-369.28571428571422
10
-195.50000000000006
20
-369.28571428571422
42
-0.41421356237309509
10
-145.50000000000006
20
-419.28571428571422
10
-145.50000000000006
20
-474.28571428571422
42
0.41421356237309342
0
LWPOLYLINE
5
143
100
AcDbEntity
8
0
100
AcDbPolyline
90
60
70
1
43
0.0
10
-300.99999999999994
20
-1111.666666666667
10
-324.33333333333337
20
-1111.666666666667
10
-324.33333333333337
20
-1115.666666666667
10
-343.66666666666674
20
-1115.666666666667
10
-343.66666666666674
20
-1072.8095238095241
10
-347.6666666666668
20
-1072.8095238095241
10
-347.6666666666668
20
-1029.9523809523812
10
-343.66666666666674
20
-1029.9523809523812
10
-343.66666666666674
20
-987.09523809523841
10
-347.6666666666668
20
-987.09523809523841
10
-347.6666666666668
20
-944.23809523809553
10
-343.66666666666674
20
-944.23809523809553
10
-343.66666666666674
20
-901.38095238095275
10
-347.6666666666668
20
-901.38095238095275
10
-347.6666666666668
20
-858.52380952380986
10
-343.66666666666674
20
-858.52380952380986
10
-343.66666666666674
20
-815.66666666666697
10
-324.33333333333337
20
-815.66666666666697
10
-324.33333333333337
20
-819.66666666666697
10
-300.99999999999994
20
-819.66666666666697
10
-300.99999999999994
20
-815.66666666666697
10
-277.6666666666668
20
-815.66666666666697
10
-277.6666666666668
20
-819.66666666666697
10
-254.33333333333337
20
-819.66666666666697
10
-254.33333333333337
20
-815.66666666666697
10
-230.99999999999994
20
-815.66666666666697
10
-230.99999999999994
20
-819.66666666666697
10
-207.66666666666666
20
-819.66666666666697
10
-207.66666666666666
20
-815.66666666666697
10
-184.33333333333337
20
-815.66666666666697
10
-184.33333333333337
20
-819.66666666666697
10
-160.99999999999994
20
-819.66666666666697
10
-160.99999999999994
20
-815.66666666666697
10
-141.66666666666671
20
-815.66666666666697
10
-141.66666666666671
20
-858.52380952380986
10
-137.66666666666666
20
-858.52380952380986
10
-137.6666666666668
20
-901.38095238095275
10
-141.66666666666671
20
-901.38095238095275
10
-141.66666666666671
20
-944.23809523809553
10
-137.6666666666668
20
-944.23809523809553
10
-137.66666666666666
20
-987.0952380952383
10
-141.66666666666657
20
-987.0952380952383
10
-141.66666666666671
20
-1029.9523809523812
10
-137.66666666666666
20
-1029.9523809523812
10
-137.66666666666666
20
-1072.8095238095241
10
-141.66666666666671
20
-1072.8095238095241
10
-141.66666666666671
20
-1115.666666666667
10
-160.99999999999994
20
-1115.666666666667
10
-160.99999999999994
20
-1111.666666666667
10
-184.33333333333337
20
-1111.666666666667
10
-184.33333333333337
20
-1115.666666666667
10
-207.66666666666666
20
-1115.666666666667
10
-207.66666666666666
20
-1111.666666666667
10
-230.99999999999994
20
-1111.666666666667
10
-230.99999999999994
20
-1115.666666666667
10
-254.33333333333337
20
-1115.666666666667
10
-254.33333333333337
20
-1111.666666666667
10
-277.6666666666668
20
-1111.666666666667
10
-277.6666666666668
20
-1115.666666666667
10
-300.99999999999994
20
-1115.666666666667
0
LWPOLYLINE
5
144
100
AcDbEntity
8
0
100
AcDbPolyline
90
4
70
1
43
0.0
10
-659.5
20
-1038.1868131868132
10
-655.50000000000011
20
-1038.1868131868132
10
-655.50000000000011
20
-995.32967032967031
10
-659.5
20
-995.32967032967031
0
LWPOLYLINE
5
145
100
AcDbEntity
8
0
100
AcDbPolyline
90
4
70
1
43
0.0
10
-655.50000000000011
20
-909.61538461538464
10
-659.5
20
-909.61538461538464
10
-659.5
20
-952.47252747252742
10
-655.50000000000011
20
-952.47252747252742
0
LWPOLYLINE
5
146
100
AcDbEntity
8
0
100
AcDbPolyline
90
64
70
1
43
0.0
10
-659.5
20
-1081.0439560439561
10
-659.5
20
-1123.901098901099
10
-677.68181818181813
20
-1123.901098901099
10
-677.68181818181813
20
-1119.901098901099
10
-709.5
20
-1119.901098901099
10
-709.5
20
-827.90109890109886
10
-677.68181818181813
20
-827.90109896070362
10
-677.68181818181813
20
-823.90109890109898
10
-659.5
20
-823.90109890109898
10
-659.5
20
-866.75824175824175
10
-655.50000000000011
20
-866.75824175824175
10
-655.50000000000011
20
-823.90109890109898
10
-645.86363636363649
20
-823.90109890109898
10
-645.86363636363649
20
-827.90109896070362
10
-614.0454545454545
20
-827.90109896070362
10
-614.0454545454545
20
-823.90109890109898
10
-582.22727272727275
20
-823.90109890109898
10
-582.22727272727275
20
-827.90109896070362
10
-550.40909090909099
20
-827.90109896070362
10
-550.40909090909099
20
-823.90109890109898
10
-518.59090909090912
20
-823.90109890109898
10
-518.59090909090912
20
-827.90109896070362
10
-486.77272727272731
20
-827.90109896070362
10
-486.77272727272731
20
-823.90109890109898
10
-454.9545454545455
20
-823.90109890109898
10
-454.9545454545455
20
-827.90109896070362
10
-423.13636363636363
20
-827.90109896070362
10
-423.13636363636363
20
-823.90109890109898
10
-391.31818181818181
20
-823.90109890109898
10
-391.31818181818181
20
-827.90109896070362
10
-363.5
20
-827.90109890109886
10
-363.5
20
-866.75824175824175
10
-359.5
20
-866.75824175824175
10
-359.5
20
-909.61538461538453
10
-363.5
20
-909.61538461538453
10
-363.5
20
-952.47252747252742
10
-359.5
20
-952.47252747252742
10
-359.5
20
-995.32967032967031
10
-363.5
20
-995.32967032967031
10
-363.5
20
-1038.1868131868132
10
-359.5
20
-1038.1868131868132
10
-359.5
20
-1081.0439560439561
10
-363.5
20
-1081.0439560439561
10
-363.5
20
-1119.901098901099
10
-391.31818181818181
20
-1119.901098901099
10
-391.31818181818181
20
-1123.901098901099
10
-423.13636363636363
20
-1123.901098901099
10
-423.13636363636363
20
-1119.901098901099
10
-454.9545454545455
20
-1119.901098901099
10
-454.9545454545455
20
-1123.901098901099
10
-486.77272727272731
20
-1123.901098901099
10
-486.77272727272731
20
-1119.901098901099
10
-518.59090909090912
20
-1119.901098901099
10
-518.59090909090912
20
-1123.901098901099
10
-550.40909090909099
20
-1123.901098901099
10
-550.40909090909099
20
-1119.901098901099
10
-582.22727272727275
20
-1119.901098901099
10
-582.22727272727275
20
-1123.901098901099
10
-614.0454545454545
20
-1123.901098901099
10
-614.0454545454545
20
-1119.901098901099
10
-645.86363636363649
20
-1119.901098901099
10
-645.86363636363649
20
-1123.901098901099
10
-655.50000000000011
20
-1123.901098901099
10
-655.50000000000011
20
-1081.0439560439561
0
LWPOLYLINE
5
147
100
AcDbEntity
8
0
100
AcDbPolyline
90
61
70
1
43
0.0
10
130.10999999999999
20
-721.1099999999999
10
99.890000000000015
20
-721.1099999999999
10
99.889999999999972
20
-550
42
-0.41421356237309509
10
150
20
-499.88999999999999
10
241
20
-499.88999999999999
42
0.41421356237309448
10
260.89000000000004
20
-480
10
260.88999999999999
20
-425
42
-0.41421356237309509
10
311
20
-374.88999999999999
10
550.11000000000001
20
-374.88999999999999
10
550.11000000000001
20
-406.92818181818188
10
546.11000000000001
20
-406.92818181818188
10
546.11000000000001
20
-425.11000000000001
10
526.77666666666664
20
-425.11000000000001
10
526.77666666666664
20
-428.88999999999999
10
546.11000000000001
20
-428.88999999999999
10
546.11000000000001
20
-438.52636363636361
10
550.11000000000001
20
-438.52636363636361
10
550.11000000000001
20
-470.56454545454551
10
546.11000000000001
20
-470.56454545454551
10
546.11000000000001
20
-502.16272727272724
10
550.11000000000001
20
-502.16272727272724
10
550.11000000000001
20
-534.20090909090914
10
546.11000000000001
20
-534.20090909090914
10
546.11000000000001
20
-565.79909090909086
10
550.11000000000001
20
-565.79909090909086
10
550.11000000000001
20
-597.83727272727276
10
546.11000000000001
20
-597.83727272727276
10
546.11000000000001
20
-629.43545454545449
10
550.11000000000001
20
-629.43545454545449
10
550.11000000000001
20
-661.47363636363639
10
546.11000000000001
20
-661.47363636363639
10
546.11000000000001
20
-693.07181818181812
10
550.11000000000001
20
-693.07181818181812
10
550.11000000000001
20
-721.1100000001602
10
509.20090909090908
20
-721.10999994055555
10
509.20090909090908
20
-725.1099999999999
10
468.07181818181817
20
-725.1099999999999
10
468.07181818181817
20
-721.10999994039526
10
427.38272727272727
20
-721.10999994039526
10
427.38272727272727
20
-725.1099999999999
10
386.25363636363636
20
-725.1099999999999
10
386.25363636363636
20
-721.10999994039526
10
345.56454545454551
20
-721.10999994039526
10
345.56454545454551
20
-725.1099999999999
10
339.88999999999999
20
-725.1099999999999
10
339.88999999999999
20
-702.03307692307681
10
336.11000000000001
20
-702.03307692307681
10
336.11000000000001
20
-725.1099999999999
10
304.43545454545455
20
-725.1099999999999
10
304.43545454545455
20
-721.10999994039526
10
263.74636363636364
20
-721.10999994039526
10
263.74636363636364
20
-725.1099999999999
10
222.61727272727273
20
-725.1099999999999
10
222.61727272727273
20
-721.10999994039526
10
181.9281818181818
20
-721.10999994039526
10
181.9281818181818
20
-725.1099999999999
10
140.79909090909095
20
-725.1099999999999
10
140.79909090909095
20
-721.10999994134431
10
133.88999999999999
20
-721.11000000094896
10
133.88999999999999
20
-703.68142857142857
10
130.10999999999999
20
-703.68142857142857
0
LWPOLYLINE
5
148
100
AcDbEntity
8
0
100
AcDbPolyline
90
4
70
1
43
0.0
10
480.11000000000001
20
-428.88999999999999
10
503.22333333333324
20
-428.88999999999999
10
503.22333333333324
20
-425.11000000000001
10
480.11000000000001
20
-425.11000000000001
0
LWPOLYLINE
5
149
100
AcDbEntity
8
0
100
AcDbPolyline
90
4
70
1
43
0.0
10
433.44333333333333
20
-428.88999999999999
10
456.55666666666662
20
-428.88999999999999
10
456.55666666666662
20
-425.11000000000001
10
433.44333333333333
20
-425.11000000000001
0
LWPOLYLINE
5
150
100
AcDbEntity
8
0
100
AcDbPolyline
90
4
70
1
43
0.0
10
386.77666666666664
20
-428.88999999999999
10
409.88999999999999
20
-428.88999999999999
10
409.88999999999999
20
-425.11000000000001
10
386.77666666666664
20
-425.11000000000001
0
LWPOLYLINE
5
151
100
AcDbEntity
8
0
100
AcDbPolyline
90
6
70
1
43
0.0
10
339.88999999999999
20
-428.88999999999999
10
363.22333333333324
20
-428.88999999999999
10
363.22333333333324
20
-425.11000000000001
10
336.11000000000001
20
-425.11000000000001
10
336.11000000000001
20
-447.96692307692302
10
339.88999999999999
20
-447.96692307692302
0
LWPOLYLINE
5
152
100
AcDbEntity
8
0
100
AcDbPolyline
90
4
70
1
43
0.0
10
336.11000000000001
20
-471.26384615384615
10
336.11000000000001
20
-494.12076923076916
10
339.88999999999999
20
-494.12076923076916
10
339.88999999999999
20
-471.26384615384615
0
LWPOLYLINE
5
153
100
AcDbEntity
8
0
100
AcDbPolyline
90
4
70
1
43
0.0
10
339.88999999999999
20
-540.27461538461534
10
339.88999999999999
20
-517.41769230769228
10
336.11000000000001
20
-517.41769230769228
10
336.11000000000001
20
-540.27461538461534
0
LWPOLYLINE
5
154
100
AcDbEntity
8
0
100
AcDbPolyline
90
8
70
1
43
0.0
10
336.11000000000001
20
-578.88999999999999
10
336.11000000000001
20
-586.42846153846153
10
339.88999999999999
20
-586.42846153846153
10
339.88999999999999
20
-563.57153846153847
10
336.11000000000001
20
-563.57153846153847
10
336.11000000000001
20
-575.11000000000001
10
316.7766666666667
20
-575.11000000000001
10
316.7766666666667
20
-578.88999999999999
0
LWPOLYLINE
5
155
100
AcDbEntity
8
0
100
AcDbPolyline
90
4
70
1
43
0.0
10
270.11000000000007
20
-578.88999999999999
10
293.22333333333336
20
-578.88999999999999
10
293.22333333333336
20
-575.11000000000001
10
270.11000000000007
20
-575.11000000000001
0
LWPOLYLINE
5
156
100
AcDbEntity
8
0
100
AcDbPolyline
90
4
70
1
43
0.0
10
246.55666666666673
20
-575.11000000000001
10
223.44333333333336
20
-575.11000000000001
10
223.44333333333336
20
-578.88999999999999
10
246.55666666666673
20
-578.88999999999999
0
LWPOLYLINE
5
157
100
AcDbEntity
8
0
100
AcDbPolyline
90
4
70
1
43
0.0
10
176.7766666666667
20
-578.88999999999999
10
199.89000000000001
20
-578.88999999999999
10
199.89000000000001
20
-575.11000000000001
10
176.7766666666667
20
-575.11000000000001
0
LWPOLYLINE
5
158
100
AcDbEntity
8
0
100
AcDbPolyline
90
6
70
1
43
0.0
10
133.89000000000007
20
-578.88999999999999
10
153.22333333333336
20
-578.88999999999999
10
153.22333333333336
20
-575.11000000000001
10
130.10999999999999
20
-575.11000000000001
10
130.10999999999999
20
-596.31857142857132
10
133.88999999999999
20
-596.31857142857132
0
LWPOLYLINE
5
159
100
AcDbEntity
8
0
100
AcDbPolyline
90
4
70
1
43
0.0
10
133.88999999999999
20
-639.17571428571432
10
133.88999999999999
20
-617.9671428571429
10
130.10999999999999
20
-617.9671428571429
10
130.10999999999999
20
-639.17571428571432
0
LWPOLYLINE
5
160
100
AcDbEntity
8
0
100
AcDbPolyline
90
4
70
1
43
0.0
10
130.10999999999999
20
-660.82428571428568
10
130.10999999999999
20
-682.03285714285721
10
133.88999999999999
20
-682.03285714285721
10
133.88999999999999
20
-660.82428571428568
0
LWPOLYLINE
5
161
100
AcDbEntity
8
0
100
AcDbPolyline
90
4
70
1
43
0.0
10
336.11000000000001
20
-609.72538461538466
10
336.11000000000001
20
-632.58230769230761
10
339.88999999999999
20
-632.58230769230761
10
339.88999999999999
20
-609.72538461538466
0
LWPOLYLINE
5
162
100
AcDbEntity
8
0
100
AcDbPolyline
90
4
70
1
43
0.0
10
339.88999999999999
20
-678.73615384615391
10
339.88999999999999
20
-655.87923076923062
10
336.11000000000001
20
-655.87923076923062
10
336.11000000000001
20
-678.73615384615391
0
LWPOLYLINE
5
163
100
AcDbEntity
8
0
100
AcDbPolyline
90
40
70
1
43
0.0
10
144.60428571428577
20
-485.68142857142868
10
101.9671428571429
20
-485.68142857142868
10
101.96714285714293
20
-489.68142857142857
10
58.890000000000057
20
-489.68142857142857
10
58.890000000000057
20
-485.68142857142868
10
16.252857142857209
20
-485.68142857142868
10
16.252857142857209
20
-489.68142857142874
10
-26.824285714285672
20
-489.68142857142874
10
-26.824285714285637
20
-485.68142857142868
10
-69.461428571428513
20
-485.68142857142868
10
-69.461428571428513
20
-489.68142857142874
10
-112.53857142857136
20
-489.68142857142874
10
-112.5385714285714
20
-339.46142857142866
10
-69.461428571428556
20
-339.46142857142866
10
-69.461428571428556
20
-343.4614285714286
10
-26.824285714285708
20
-343.4614285714286
10
-26.824285714285708
20
-339.46142857142866
10
16.252857142857138
20
-339.46142857142866
10
16.252857142857138
20
-343.4614285714286
10
58.890000000000001
20
-343.4614285714286
10
58.889999999999986
20
-339.46142857142854
10
101.96714285714286
20
-339.46142857142854
10
101.96714285714286
20
-343.4614285714286
10
144.60428571428571
20
-343.4614285714286
10
144.60428571428571
20
-339.46142857142854
10
187.6814285714286
20
-339.46142857142854
10
187.6814285714286
20
-361.10999999999996
10
183.6814285714286
20
-361.10999999999996
10
183.6814285714286
20
-382.31857142857143
10
187.6814285714286
20
-382.31857142857143
10
187.6814285714286
20
-403.9671428571429
10
183.6814285714286
20
-403.9671428571429
10
183.6814285714286
20
-425.17571428571421
10
187.6814285714286
20
-425.17571428571421
10
187.6814285714286
20
-446.82428571428579
10
183.6814285714286
20
-446.82428571428579
10
183.6814285714286
20
-468.03285714285715
10
187.6814285714286
20
-468.03285714285715
10
187.68142857142863
20
-489.68142857142857
10
144.60428571428579
20
-489.68142857142857
0
LWPOLYLINE
5
164
100
AcDbEntity
8
0
100
AcDbPolyline
90
61
70
1
43
0.0
10
-434.61000000000007
20
-401.2138961038961
10
-434.61000000000007
20
-369.17571428571421
10
-195.50000000000006
20
-369.17571428571421
42
-0.41421356237309509
10
-145.39000000000004
20
-419.28571428571422
10
-145.39000000000004
20
-474.28571428571422
42
0.41421356237309342
10
-125.50000000000004
20
-494.17571428571421
10
-34.500000000000036
20
-494.17571428571421
42
-0.41421356237309509
10
15.609999999999971
20
-544.28571428571422
10
15.609999999999971
20
-715.39571428571435
10
-14.610000000000028
20
-715.39571428571435
10
-14.610000000000028
20
-697.96714285714279
10
-18.390000000000015
20
-697.96714285714279
10
-18.390000000000015
20
-715.39571428666341
10
-25.299090909090964
20
-715.39571422705853
10
-25.299090909090964
20
-719.39571428571412
10
-66.428181818181827
20
-719.39571428571412
10
-66.428181818181827
20
-715.39571422610948
10
-107.11727272727276
20
-715.39571422610948
10
-107.11727272727276
20
-719.39571428571412
10
-148.24636363636361
20
-719.39571428571412
10
-148.24636363636361
20
-715.39571422610948
10
-188.93545454545458
20
-715.39571422610948
10
-188.93545454545458
20
-719.39571428571412
10
-220.61000000000004
20
-719.39571428571412
10
-220.61000000000004
20
-696.31879120879125
10
-224.39000000000004
20
-696.31879120879125
10
-224.39000000000004
20
-719.39571428571412
10
-230.06454545454548
20
-719.39571428571412
10
-230.06454545454548
20
-715.39571422610948
10
-270.75363636363642
20
-715.39571422610948
10
-270.75363636363642
20
-719.39571428571412
10
-311.88272727272738
20
-719.39571428571412
10
-311.88272727272738
20
-715.39571422610948
10
-352.57181818181812
20
-715.39571422610948
10
-352.57181818181812
20
-719.39571428571412
10
-393.70090909090914
20
-719.39571428571412
10
-393.70090909090914
20
-715.39571422626977
10
-434.61000000000007
20
-715.39571428587465
10
-434.61000000000007
20
-687.35753246753256
10
-430.61000000000013
20
-687.35753246753256
10
-430.61000000000013
20
-655.75935064935061
10
-434.61000000000007
20
-655.75935064935061
10
-434.61000000000007
20
-623.72116883116882
10
-430.61000000000013
20
-623.72116883116882
10
-430.61000000000013
20
-592.12298701298698
10
-434.61000000000007
20
-592.12298701298698
10
-434.61000000000007
20
-560.08480519480509
10
-430.61000000000013
20
-560.08480519480509
10
-430.61000000000013
20
-528.48662337662336
10
-434.61000000000007
20
-528.48662337662336
10
-434.61000000000007
20
-496.44844155844146
10
-430.61000000000013
20
-496.44844155844146
10
-430.61000000000013
20
-464.85025974025973
10
-434.61000000000007
20
-464.85025974025973
10
-434.61000000000007
20
-432.81207792207789
10
-430.61000000000013
20
-432.81207792207789
10
-430.61000000000013
20
-423.17571428571421
10
-411.27666666666676
20
-423.17571428571421
10
-411.27666666666676
20
-419.39571428571423
10
-430.61000000000013
20
-419.39571428571423
10
-430.61000000000013
20
-401.2138961038961
0
LWPOLYLINE
5
165
100
AcDbEntity
8
0
100
AcDbPolyline
90
4
70
1
43
0.0
10
-387.7233333333333
20
-423.17571428571421
10
-364.61000000000007
20
-423.17571428571421
10
-364.61000000000007
20
-419.39571428571423
10
-387.7233333333333
20
-419.39571428571423
0
LWPOLYLINE
5
166
100
AcDbEntity
8
0
100
AcDbPolyline
90
4
70
1
43
0.0
10
-317.94333333333333
20
-419.39571428571423
10
-341.05666666666673
20
-419.39571428571423
10
-341.05666666666673
20
-423.17571428571421
10
-317.94333333333333
20
-423.17571428571421
0
LWPOLYLINE
5
167
100
AcDbEntity
8
0
100
AcDbPolyline
90
4
70
1
43
0.0
10
-271.27666666666664
20
-419.39571428571423
10
-294.39000000000004
20
-419.39571428571423
10
-294.39000000000004
20
-423.17571428571421
10
-271.27666666666664
20
-423.17571428571421
0
LWPOLYLINE
5
168
100
AcDbEntity
8
0
100
AcDbPolyline
90
6
70
1
43
0.0
10
-224.39000000000004
20
-442.2526373626373
10
-220.61000000000004
20
-442.2526373626373
10
-220.61000000000004
20
-419.39571428571423
10
-247.72333333333333
20
-419.39571428571423
10
-247.72333333333333
20
-423.17571428571421
10
-224.39000000000004
20
-423.17571428571421
0
LWPOLYLINE
5
169
100
AcDbEntity
8
0
100
AcDbPolyline
90
4
70
1
43
0.0
10
-220.61000000000004
20
-488.40648351648338
10
-220.61000000000004
20
-465.54956043956042
10
-224.39000000000004
20
-465.54956043956042
10
-224.39000000000004
20
-488.40648351648338
0
LWPOLYLINE
5
170
100
AcDbEntity
8
0
100
AcDbPolyline
90
4
70
1
43
0.0
10
-220.61000000000004
20
-534.56032967032957
10
-220.61000000000004
20
-511.7034065934065
10
-224.39000000000004
20
-511.7034065934065
10
-224.39000000000004
20
-534.56032967032957
0
LWPOLYLINE
5
171
100
AcDbEntity
8
0
100
AcDbPolyline
90
8
70
1
43
0.0
10
-220.61000000000004
20
-569.39571428571423
10
-220.61000000000004
20
-557.85725274725269
10
-224.39000000000004
20
-557.85725274725269
10
-224.39000000000004
20
-580.71417582417575
10
-220.61000000000004
20
-580.71417582417575
10
-220.61000000000004
20
-573.17571428571421
10
-201.27666666666673
20
-573.17571428571421
10
-201.27666666666673
20
-569.39571428571423
0
LWPOLYLINE
5
172
100
AcDbEntity
8
0
100
AcDbPolyline
90
4
70
1
43
0.0
10
-220.61000000000004
20
-626.86802197802183
10
-220.61000000000004
20
-604.01109890109888
10
-224.39000000000004
20
-604.01109890109888
10
-224.39000000000004
20
-626.86802197802183
0
LWPOLYLINE
5
173
100
AcDbEntity
8
0
100
AcDbPolyline
90
4
70
1
43
0.0
10
-224.39000000000004
20
-650.16494505494495
10
-224.39000000000004
20
-673.02186813186813
10
-220.61000000000004
20
-673.02186813186813
10
-220.61000000000004
20
-650.16494505494495
0
LWPOLYLINE
5
174
100
AcDbEntity
8
0
100
AcDbPolyline
90
4
70
1
43
0.0
10
-177.72333333333339
20
-573.17571428571421
10
-154.6100000000001
20
-573.17571428571421
10
-154.6100000000001
20
-569.39571428571423
10
-177.72333333333339
20
-569.39571428571423
0
LWPOLYLINE
5
175
100
AcDbEntity
8
0
100
AcDbPolyline
90
4
70
1
43
0.0
10
-131.05666666666676
20
-573.17571428571421
10
-107.94333333333338
20
-573.17571428571421
10
-107.94333333333338
20
-569.39571428571423
10
-131.05666666666676
20
-569.39571428571423
0
LWPOLYLINE
5
176
100
AcDbEntity
8
0
100
AcDbPolyline
90
4
70
1
43
0.0
10
-84.390000000000043
20
-573.17571428571421
10
-61.276666666666742
20
-573.17571428571421
10
-61.276666666666742
20
-569.39571428571423
10
-84.390000000000043
20
-569.39571428571423
0
LWPOLYLINE
5
177
100
AcDbEntity
8
0
100
AcDbPolyline
90
6
70
1
43
0.0
10
-14.61000000000003
20
-569.39571428571423
10
-37.723333333333386
20
-569.39571428571423
10
-37.723333333333386
20
-573.17571428571421
10
-18.390000000000086
20
-573.17571428571421
10
-18.390000000000015
20
-590.60428571428565
10
-14.610000000000028
20
-590.60428571428565
0
LWPOLYLINE
5
178
100
AcDbEntity
8
0
100
AcDbPolyline
90
4
70
1
43
0.0
10
-18.390000000000015
20
-612.25285714285712
10
-18.390000000000015
20
-633.46142857142854
10
-14.610000000000028
20
-633.46142857142854
10
-14.610000000000028
20
-612.25285714285712
0
LWPOLYLINE
5
179
100
AcDbEntity
8
0
100
AcDbPolyline
90
4
70
1
43
0.0
10
-18.390000000000015
20
-655.1099999999999
10
-18.390000000000015
20
-676.31857142857143
10
-14.610000000000028
20
-676.31857142857143
10
-14.610000000000028
20
-655.1099999999999
0
LWPOLYLINE
5
180
100
AcDbEntity
8
0
100
AcDbPolyline
90
76
70
1
43
0.0
10
-434.11000000000001
20
-244.39571428571426
10
-434.11000000000001
20
-201.31857142857146
10
-430.11000000000001
20
-201.31857142857146
10
-430.11000000000001
20
-158.68142857142857
10
-434.11000000000001
20
-158.68142857142857
10
-434.11000000000001
20
-115.60428571428574
10
-430.11000000000001
20
-115.60428571428574
10
-430.11000000000001
20
-72.967142857142861
10
-434.11000000000001
20
-72.967142857142861
10
-434.11000000000001
20
-29.890000000000001
10
-410.81307692307684
20
-29.890000000000001
10
-410.81307692307684
20
-33.890000000000001
10
-387.95615384615382
20
-33.890000000000001
10
-387.95615384615382
20
-29.890000000000001
10
-364.6592307692307
20
-29.890000000000001
10
-364.6592307692307
20
-33.890000000000001
10
-341.80230769230769
20
-33.890000000000001
10
-341.80230769230769
20
-29.890000000000001
10
-318.50538461538457
20
-29.890000000000001
10
-318.50538461538457
20
-33.890000000000001
10
-295.6484615384615
20
-33.890000000000001
10
-295.6484615384615
20
-29.890000000000001
10
-272.35153846153844
20
-29.890000000000001
10
-272.35153846153844
20
-33.890000000000001
10
-249.49461538461534
20
-33.890000000000001
10
-249.49461538461534
20
-29.890000000000001
10
-226.19769230769225
20
-29.890000000000001
10
-226.19769230769225
20
-33.890000000000001
10
-203.34076923076918
20
-33.890000000000001
10
-203.34076923076918
20
-29.890000000000001
10
-180.04384615384612
20
-29.890000000000001
10
-180.04384615384612
20
-33.890000000000001
10
-157.18692307692305
20
-33.890000000000001
10
-157.18692307692305
20
-29.890000000000001
10
-133.88999999999999
20
-29.890000000000001
10
-133.88999999999999
20
-72.967142857142861
10
-137.88999999999999
20
-72.967142857142861
10
-137.88999999999999
20
-115.60428571428574
10
-133.88999999999999
20
-115.60428571428574
10
-133.88999999999999
20
-158.68142857142857
10
-137.88999999999999
20
-158.68142857142857
10
-137.88999999999999
20
-201.31857142857146
10
-133.88999999999999
20
-201.31857142857146
10
-133.88999999999999
20
-244.39571428571426
10
-137.88999999999999
20
-244.39571428571426
10
-137.88999999999999
20
-287.03285714285715
10
-133.88999999999999
20
-287.03285714285715
10
-133.88999999999999
20
-330.11000000000001
10
-157.18692307692305
20
-330.11000000000001
10
-157.18692307692305
20
-326.11000000000001
10
-180.04384615384612
20
-326.11000000000001
10
-180.04384615384612
20
-330.11000000000001
10
-203.34076923076918
20
-330.11000000000001
10
-203.34076923076918
20
-326.11000000000001
10
-226.19769230769225
20
-326.11000000000001
10
-226.19769230769225
20
-330.11000000000001
10
-249.49461538461534
20
-330.11000000000001
10
-249.49461538461534
20
-326.11000000000001
10
-272.35153846153844
20
-326.11000000000001
10
-272.35153846153844
20
-330.11000000000001
10
-295.6484615384615
20
-330.11000000000001
10
-295.6484615384615
20
-326.11000000000001
10
-318.50538461538457
20
-326.11000000000001
10
-318.50538461538457
20
-330.11000000000001
10
-341.80230769230769
20
-330.11000000000001
10
-341.80230769230769
20
-326.11000000000001
10
-364.6592307692307
20
-326.11000000000001
10
-364.6592307692307
20
-330.11000000000001
10
-387.95615384615382
20
-330.11000000000001
10
-387.95615384615382
20
-326.11000000000001
10
-410.81307692307684
20
-326.11000000000001
10
-410.81307692307684
20
-330.11000000000001
10
-434.11000000000001
20
-330.11000000000001
10
-434.11000000000001
20
-287.03285714285715
10
-430.11000000000001
20
-287.03285714285715
10
-430.11000000000001
20
-244.39571428571426
0
LWPOLYLINE
5
181
100
AcDbEntity
8
0
100
AcDbPolyline
90
4
70
1
43
0.0
10
-287.88999999999999
20
-244.39571428571429
10
-287.88999999999999
20
-287.03285714285715
10
-284.10999999999996
20
-287.03285714285715
10
-284.10999999999996
20
-244.39571428571429
0
LWPOLYLINE
5
182
100
AcDbEntity
8
0
100
AcDbPolyline
90
4
70
1
43
0.0
10
-287.88999999999999
20
-158.6814285714286
10
-287.88999999999999
20
-201.31857142857146
10
-284.10999999999996
20
-201.31857142857146
10
-284.10999999999996
20
-158.6814285714286
0
LWPOLYLINE
5
183
100
AcDbEntity
8
0
100
AcDbPolyline
90
4
70
1
43
0.0
10
-284.10999999999996
20
-115.60428571428574
10
-284.10999999999996
20
-72.967142857142889
10
-287.88999999999999
20
-72.967142857142889
10
-287.88999999999999
20
-115.60428571428574
0
LWPOLYLINE
5
184
100
AcDbEntity
8
0
100
AcDbPolyline
90
72
70
1
43
0.0
10
222.83727272727273
20
-33.890000000000001
10
263.52636363636361
20
-33.890000000000001
10
263.52636363636361
20
-29.890000000000001
10
304.65545454545452
20
-29.890000000000001
10
304.65545454545452
20
-33.890000000000001
10
336.11000000000001
20
-33.890000000000001
10
336.11000000000001
20
-72.747142857142848
10
339.88999999999999
20
-72.747142857142848
10
339.88999999999999
20
-33.890000000000001
10
345.34454545454543
20
-33.890000000000001
10
345.34454545454543
20
-29.890000000000001
10
386.47363636363644
20
-29.890000000000001
10
386.47363636363644
20
-33.890000000000001
10
427.16272727272724
20
-33.890000000000001
10
427.16272727272724
20
-29.890000000000001
10
468.29181818181826
20
-29.890000000000001
10
468.29181818181826
20
-33.890000000000001
10
508.98090909090905
20
-33.890000000000001
10
508.98090909090905
20
-29.890000000000001
10
550.11000000000001
20
-29.890000000000001
10
550.11000000000001
20
-72.967142857142861
10
546.11000000000001
20
-72.967142857142861
10
546.11000000000001
20
-115.60428571428572
10
550.11000000000001
20
-115.60428571428572
10
550.11000000000001
20
-158.68142857142857
10
546.11000000000001
20
-158.68142857142857
10
546.11000000000001
20
-201.31857142857143
10
550.11000000000001
20
-201.31857142857143
10
550.11000000000001
20
-244.39571428571426
10
546.11000000000001
20
-244.39571428571426
10
546.11000000000001
20
-287.03285714285715
10
550.11000000000001
20
-287.03285714285715
10
550.11000000000001
20
-330.11000000000001
10
508.98090909090905
20
-330.11000000000001
10
508.98090909090905
20
-326.11000000000001
10
468.29181818181826
20
-326.11000000000001
10
468.29181818181826
20
-330.11000000000001
10
427.16272727272724
20
-330.11000000000001
10
427.16272727272724
20
-326.11000000000001
10
386.47363636363644
20
-326.11000000000001
10
386.47363636363644
20
-330.11000000000001
10
345.34454545454543
20
-330.11000000000001
10
345.34454545454543
20
-326.11000000000001
10
339.88999999999999
20
-326.11000000000001
10
339.88999999999999
20
-287.25285714285712
10
336.11000000000001
20
-287.25285714285712
10
336.11000000000001
20
-326.11000000000001
10
304.65545454545452
20
-326.11000000000001
10
304.65545454545452
20
-330.11000000000001
10
263.52636363636361
20
-330.11000000000001
10
263.52636363636361
20
-326.11000000000001
10
222.83727272727273
20
-326.11000000000001
10
222.83727272727273
20
-330.11000000000001
10
181.7081818181818
20
-330.11000000000001
10
181.7081818181818
20
-326.11000000000001
10
141.01909090909092
20
-326.11000000000001
10
141.01909090909092
20
-330.11000000000001
10
133.88999999999999
20
-330.11000000000001
10
133.88999999999999
20
-287.25285714285712
10
130.10999999999999
20
-287.25285714285712
10
130.10999999999999
20
-330.11000000000001
10
99.890000000000015
20
-330.11000000000001
10
99.890000000000015
20
-29.890000000000001
10
130.10999999999999
20
-29.890000000000001
10
130.10999999999999
20
-72.747142857142848
10
133.88999999999999
20
-72.747142857142848
10
133.88999999999999
20
-29.890000000000001
10
141.01909090909092
20
-29.890000000000001
10
141.01909090909092
20
-33.890000000000001
10
181.7081818181818
20
-33.890000000000001
10
181.7081818181818
20
-29.890000000000001
10
222.83727272727273
20
-29.890000000000001
0
LWPOLYLINE
5
185
100
AcDbEntity
8
0
100
AcDbPolyline
90
4
70
1
43
0.0
10
339.88999999999999
20
-244.17571428571426
10
339.88999999999999
20
-201.53857142857146
10
336.11000000000001
20
-201.53857142857146
10
336.11000000000001
20
-244.17571428571426
0
LWPOLYLINE
5
186
100
AcDbEntity
8
0
100
AcDbPolyline
90
4
70
1
43
0.0
10
339.88999999999999
20
-158.4614285714286
10
339.88999999999999
20
-115.82428571428572
10
336.11000000000001
20
-115.82428571428572
10
336.11000000000001
20
-158.4614285714286
0
LWPOLYLINE
5
187
100
AcDbEntity
8
0
100
AcDbPolyline
90
4
70
1
43
0.0
10
133.88999999999999
20
-244.17571428571426
10
133.88999999999999
20
-201.5385714285714
10
130.10999999999999
20
-201.5385714285714
10
130.10999999999999
20
-244.17571428571426
0
LWPOLYLINE
5
188
100
AcDbEntity
8
0
100
AcDbPolyline
90
4
70
1
43
0.0
10
133.88999999999999
20
-158.4614285714286
10
133.88999999999999
20
-115.82428571428571
10
130.10999999999999
20
-115.82428571428571
10
130.10999999999999
20
-158.4614285714286
0
LWPOLYLINE
5
189
100
AcDbEntity
8
0
100
AcDbPolyline
90
64
70
1
43
0.0
10
-614.15545454545463
20
-823.79109890109908
10
-582.11727272727273
20
-823.79109890109908
10
-582.11727272727273
20
-827.79109896070372
10
-550.51909090909101
20
-827.79109896070372
10
-550.51909090909101
20
-823.79109890109908
10
-518.48090909090911
20
-823.79109890109908
10
-518.48090909090911
20
-827.79109896070372
10
-486.88272727272732
20
-827.79109896070372
10
-486.88272727272732
20
-823.79109890109908
10
-454.84454545454548
20
-823.79109890109908
10
-454.84454545454548
20
-827.79109896070372
10
-423.24636363636364
20
-827.79109896070372
10
-423.24636363636364
20
-823.79109890109908
10
-391.2081818181818
20
-823.79109890109908
10
-391.2081818181818
20
-827.79109896046793
10
-363.38999999999999
20
-827.79109890086318
10
-363.38999999999999
20
-866.64824175824174
10
-359.38999999999999
20
-866.64824175824174
10
-359.38999999999999
20
-909.72538461538443
10
-363.38999999999999
20
-909.72538461538443
10
-363.38999999999999
20
-952.36252747252752
10
-359.38999999999999
20
-952.36252747252752
10
-359.38999999999999
20
-995.43967032967032
10
-363.38999999999999
20
-995.43967032967032
10
-363.38999999999999
20
-1038.0768131868131
10
-359.38999999999999
20
-1038.0768131868131
10
-359.38999999999999
20
-1081.153956043956
10
-363.38999999999999
20
-1081.153956043956
10
-363.38999999999999
20
-1120.0110989010989
10
-391.2081818181818
20
-1120.0110989010989
10
-391.2081818181818
20
-1124.0110989010989
10
-423.24636363636364
20
-1124.0110989010989
10
-423.24636363636364
20
-1120.0110989010989
10
-454.84454545454548
20
-1120.0110989010989
10
-454.84454545454548
20
-1124.0110989010989
10
-486.88272727272732
20
-1124.0110989010989
10
-486.88272727272732
20
-1120.0110989010989
10
-518.48090909090911
20
-1120.0110989010989
10
-518.48090909090911
20
-1124.0110989010989
10
-550.51909090909101
20
-1124.0110989010989
10
-550.51909090909101
20
-1120.0110989010989
10
-582.11727272727273
20
-1120.0110989010989
10
-582.11727272727273
20
-1124.0110989010989
10
-614.15545454545463
20
-1124.0110989010989
10
-614.15545454545463
20
-1120.0110989010989
10
-645.75363636363647
20
-1120.0110989010989
10
-645.75363636363647
20
-1124.0110989010989
10
-655.61000000000013
20
-1124.0110989010989
10
-655.61000000000013
20
-1081.153956043956
10
-659.3900000000001
20
-1081.153956043956
10
-659.3900000000001
20
-1124.0110989010989
10
-677.79181818181814
20
-1124.0110989010989
10
-677.79181818181814
20
-1120.0110989010989
10
-709.61000000000001
20
-1120.0110989010989
10
-709.61000000000001
20
-827.79109890089285
10
-677.79181818181814
20
-827.79109896049761
10
-677.79181818181814
20
-823.79109890109908
10
-659.3900000000001
20
-823.79109890109908
10
-659.3900000000001
20
-866.64824175824174
10
-655.61000000000013
20
-866.64824175824174
10
-655.61000000000013
20
-823.79109890109908
10
-645.75363636363647
20
-823.79109890109908
10
-645.75363636363647
20
-827.79109896070372
10
-614.15545454545463
20
-827.79109896070372
0
LWPOLYLINE
5
190
100
AcDbEntity
8
0
100
AcDbPolyline
90
4
70
1
43
0.0
10
-659.3900000000001
20
-909.72538461538466
10
-659.3900000000001
20
-952.36252747252752
10
-655.61000000000013
20
-952.36252747252752
10
-655.61000000000013
20
-909.72538461538466
0
LWPOLYLINE
5
191
100
AcDbEntity
8
0
100
AcDbPolyline
90
4
70
1
43
0.0
10
-659.3900000000001
20
-995.43967032967032
10
-659.3900000000001
20
-1038.0768131868131
10
-655.61000000000013
20
-1038.0768131868131
10
-655.61000000000013
20
-995.43967032967032
0
LWPOLYLINE
5
192
100
AcDbEntity
8
0
100
AcDbPolyline
90
60
70
1
43
0.0
10
86.109999999999985
20
-244.39571428571429
10
86.109999999999985
20
-287.03285714285721
10
90.109999999999985
20
-287.03285714285721
10
90.109999999999985
20
-330.11000000000001
10
66.556666666666644
20
-330.11000000000001
10
66.556666666666644
20
-326.11000000000013
10
43.443333333333321
20
-326.11000000000013
10
43.443333333333321
20
-330.11000000000001
10
19.889999999999983
20
-330.11000000000001
10
19.889999999999986
20
-326.11000000000013
10
-3.2233333333333389
20
-326.11000000000013
10
-3.223333333333338
20
-330.11000000000001
10
-26.776666666666678
20
-330.11000000000001
10
-26.776666666666678
20
-326.11000000000013
10
-49.890000000000001
20
-326.11000000000013
10
-49.890000000000001
20
-330.11000000000001
10
-73.443333333333356
20
-330.11000000000001
10
-73.443333333333356
20
-326.11000000000013
10
-96.556666666666686
20
-326.11000000000013
10
-96.556666666666686
20
-330.11000000000001
10
-120.10999999999999
20
-330.11000000000001
10
-120.10999999999999
20
-287.25285714285718
10
-124.10999999999999
20
-287.25285714285718
10
-124.10999999999999
20
-244.17571428571432
10
-120.10999999999999
20
-244.17571428571432
10
-120.10999999999999
20
-201.53857142857149
10
-124.10999999999999
20
-201.53857142857149
10
-124.10999999999999
20
-158.46142857142863
10
-120.10999999999999
20
-158.46142857142863
10
-120.10999999999999
20
-115.82428571428576
10
-124.10999999999999
20
-115.82428571428576
10
-124.10999999999999
20
-72.747142857142876
10
-120.10999999999999
20
-72.747142857142876
10
-120.10999999999999
20
-29.890000000000001
10
-96.556666666666686
20
-29.890000000000001
10
-96.556666666666686
20
-33.890000000000057
10
-73.443333333333356
20
-33.890000000000057
10
-73.443333333333356
20
-29.890000000000001
10
-49.890000000000001
20
-29.890000000000001
10
-49.890000000000001
20
-33.890000000000057
10
-26.776666666666678
20
-33.890000000000057
10
-26.776666666666678
20
-29.890000000000001
10
-3.2233333333333389
20
-29.890000000000001
10
-3.2233333333333358
20
-33.890000000000057
10
19.889999999999983
20
-33.890000000000057
10
19.889999999999979
20
-29.890000000000001
10
43.443333333333321
20
-29.890000000000001
10
43.443333333333321
20
-33.890000000000057
10
66.556666666666644
20
-33.890000000000057
10
66.556666666666644
20
-29.890000000000001
10
90.109999999999985
20
-29.890000000000001
10
90.109999999999985
20
-72.967142857142889
10
86.109999999999985
20
-72.967142857142889
10
86.109999999999985
20
-115.60428571428577
10
90.109999999999985
20
-115.60428571428577
10
90.109999999999985
20
-158.6814285714286
10
86.109999999999985
20
-158.6814285714286
10
86.109999999999985
20
-201.31857142857149
10
90.109999999999985
20
-201.31857142857149
10
90.109999999999985
20
-244.39571428571429
0
LWPOLYLINE
5
193
100
AcDbEntity
8
0
100
AcDbPolyline
90
60
70
1
43
0.0
10
-137.55666666666681
20
-944.12809523809551
10
-137.55666666666667
20
-987.2052380952382
10
-141.55666666666659
20
-987.2052380952382
10
-141.55666666666673
20
-1029.8423809523813
10
-137.55666666666667
20
-1029.8423809523813
10
-137.55666666666667
20
-1072.919523809524
10
-141.55666666666673
20
-1072.919523809524
10
-141.55666666666673
20
-1115.7766666666669
10
-161.10999999999993
20
-1115.7766666666669
10
-161.10999999999993
20
-1111.7766666666669
10
-184.22333333333339
20
-1111.7766666666669
10
-184.22333333333339
20
-1115.7766666666669
10
-207.77666666666664
20
-1115.7766666666669
10
-207.77666666666664
20
-1111.7766666666669
10
-230.88999999999996
20
-1111.7766666666669
10
-230.88999999999996
20
-1115.7766666666669
10
-254.44333333333336
20
-1115.7766666666669
10
-254.44333333333336
20
-1111.7766666666669
10
-277.55666666666679
20
-1111.7766666666669
10
-277.55666666666679
20
-1115.7766666666669
10
-301.10999999999996
20
-1115.7766666666669
10
-301.10999999999996
20
-1111.7766666666669
10
-324.22333333333336
20
-1111.7766666666669
10
-324.22333333333336
20
-1115.7766666666669
10
-343.77666666666676
20
-1115.7766666666669
10
-343.77666666666676
20
-1072.919523809524
10
-347.77666666666681
20
-1072.919523809524
10
-347.77666666666681
20
-1029.8423809523813
10
-343.77666666666676
20
-1029.8423809523813
10
-343.77666666666676
20
-987.20523809523843
10
-347.77666666666681
20
-987.20523809523843
10
-347.77666666666681
20
-944.12809523809551
10
-343.77666666666676
20
-944.12809523809551
10
-343.77666666666676
20
-901.49095238095265
10
-347.77666666666681
20
-901.49095238095265
10
-347.77666666666681
20
-858.41380952380985
10
-343.77666666666676
20
-858.41380952380985
10
-343.77666666666676
20
-815.55666666666696
10
-324.22333333333336
20
-815.55666666666696
10
-324.22333333333336
20
-819.55666666666707
10
-301.10999999999996
20
-819.55666666666707
10
-301.10999999999996
20
-815.55666666666696
10
-277.55666666666679
20
-815.55666666666696
10
-277.55666666666679
20
-819.55666666666707
10
-254.44333333333336
20
-819.55666666666707
10
-254.44333333333336
20
-815.55666666666696
10
-230.88999999999996
20
-815.55666666666696
10
-230.88999999999996
20
-819.55666666666707
10
-207.77666666666664
20
-819.55666666666707
10
-207.77666666666664
20
-815.55666666666696
10
-184.22333333333339
20
-815.55666666666696
10
-184.22333333333339
20
-819.55666666666707
10
-161.10999999999993
20
-819.55666666666707
10
-161.10999999999993
20
-815.55666666666696
10
-141.55666666666673
20
-815.55666666666696
10
-141.55666666666673
20
-858.41380952380985
10
-137.55666666666667
20
-858.41380952380985
10
-137.55666666666681
20
-901.49095238095265
10
-141.55666666666673
20
-901.49095238095265
10
-141.55666666666673
20
-944.12809523809551
0
ENDSEC
0
SECTION
2
OBJECTS
0
DICTIONARY
5
C
100
AcDbDictionary
3
ACAD_GROUP
350
D
3
ACAD_MLINESTYLE
350
17
0
DICTIONARY
5
D
100
AcDbDictionary
0
DICTIONARY
5
1A
330
C
100
AcDbDictionary
0
DICTIONARY
5
17
100
AcDbDictionary
0
ENDSEC
0
EOF
